<?xml version="1.0" standalone="no"?>
<svg xmlns="http://www.w3.org/2000/svg" width="1000" height="1300" viewBox="0 0 1000 1300"><defs><clipPath id="clip-path-dot-color"><rect x="152" y="465" width="24" height="24" transform="rotate(0,164,477)"/><rect x="152" y="537" width="24" height="24" transform="rotate(0,164,549)"/><rect x="152" y="633" width="24" height="24" transform="rotate(0,164,645)"/><rect x="152" y="657" width="24" height="24" transform="rotate(0,164,669)"/><rect x="152" y="729" width="24" height="24" transform="rotate(0,164,741)"/><rect x="152" y="753" width="24" height="24" transform="rotate(0,164,765)"/><rect x="176" y="489" width="24" height="24" transform="rotate(0,188,501)"/><rect x="176" y="633" width="24" height="24" transform="rotate(0,188,645)"/><rect x="176" y="657" width="24" height="24" transform="rotate(0,188,669)"/><rect x="176" y="705" width="24" height="24" transform="rotate(0,188,717)"/><rect x="176" y="753" width="24" height="24" transform="rotate(0,188,765)"/><rect x="200" y="465" width="24" height="24" transform="rotate(0,212,477)"/><rect x="200" y="513" width="24" height="24" transform="rotate(0,212,525)"/><rect x="200" y="537" width="24" height="24" transform="rotate(0,212,549)"/><rect x="200" y="585" width="24" height="24" transform="rotate(0,212,597)"/><rect x="200" y="609" width="24" height="24" transform="rotate(0,212,621)"/><rect x="200" y="681" width="24" height="24" transform="rotate(0,212,693)"/><rect x="200" y="753" width="24" height="24" transform="rotate(0,212,765)"/><rect x="224" y="465" width="24" height="24" transform="rotate(0,236,477)"/><rect x="224" y="537" width="24" height="24" transform="rotate(0,236,549)"/><rect x="224" y="561" width="24" height="24" transform="rotate(0,236,573)"/><rect x="224" y="657" width="24" height="24" transform="rotate(0,236,669)"/><rect x="224" y="753" width="24" height="24" transform="rotate(0,236,765)"/><rect x="248" y="489" width="24" height="24" transform="rotate(0,260,501)"/><rect x="248" y="537" width="24" height="24" transform="rotate(0,260,549)"/><rect x="248" y="561" width="24" height="24" transform="rotate(0,260,573)"/><rect x="248" y="585" width="24" height="24" transform="rotate(0,260,597)"/><rect x="248" y="657" width="24" height="24" transform="rotate(0,260,669)"/><rect x="248" y="705" width="24" height="24" transform="rotate(0,260,717)"/><rect x="272" y="465" width="24" height="24" transform="rotate(0,284,477)"/><rect x="272" y="537" width="24" height="24" transform="rotate(0,284,549)"/><rect x="272" y="561" width="24" height="24" transform="rotate(0,284,573)"/><rect x="272" y="657" width="24" height="24" transform="rotate(0,284,669)"/><rect x="272" y="705" width="24" height="24" transform="rotate(0,284,717)"/><rect x="272" y="729" width="24" height="24" transform="rotate(0,284,741)"/><rect x="296" y="465" width="24" height="24" transform="rotate(0,308,477)"/><rect x="296" y="513" width="24" height="24" transform="rotate(0,308,525)"/><rect x="296" y="561" width="24" height="24" transform="rotate(0,308,573)"/><rect x="296" y="609" width="24" height="24" transform="rotate(0,308,621)"/><rect x="296" y="657" width="24" height="24" transform="rotate(0,308,669)"/><rect x="296" y="705" width="24" height="24" transform="rotate(0,308,717)"/><rect x="296" y="753" width="24" height="24" transform="rotate(0,308,765)"/><rect x="320" y="465" width="24" height="24" transform="rotate(0,332,477)"/><rect x="320" y="561" width="24" height="24" transform="rotate(0,332,573)"/><rect x="320" y="633" width="24" height="24" transform="rotate(0,332,645)"/><rect x="320" y="657" width="24" height="24" transform="rotate(0,332,669)"/><rect x="320" y="681" width="24" height="24" transform="rotate(0,332,693)"/><rect x="320" y="705" width="24" height="24" transform="rotate(0,332,717)"/><rect x="320" y="729" width="24" height="24" transform="rotate(0,332,741)"/><rect x="320" y="753" width="24" height="24" transform="rotate(0,332,765)"/><rect x="344" y="297" width="24" height="24" transform="rotate(0,356,309)"/><rect x="344" y="345" width="24" height="24" transform="rotate(0,356,357)"/><rect x="344" y="393" width="24" height="24" transform="rotate(0,356,405)"/><rect x="344" y="417" width="24" height="24" transform="rotate(0,356,429)"/><rect x="344" y="441" width="24" height="24" transform="rotate(0,356,453)"/><rect x="344" y="465" width="24" height="24" transform="rotate(0,356,477)"/><rect x="344" y="513" width="24" height="24" transform="rotate(0,356,525)"/><rect x="344" y="537" width="24" height="24" transform="rotate(0,356,549)"/><rect x="344" y="561" width="24" height="24" transform="rotate(0,356,573)"/><rect x="344" y="585" width="24" height="24" transform="rotate(0,356,597)"/><rect x="344" y="657" width="24" height="24" transform="rotate(0,356,669)"/><rect x="344" y="681" width="24" height="24" transform="rotate(0,356,693)"/><rect x="344" y="777" width="24" height="24" transform="rotate(0,356,789)"/><rect x="344" y="801" width="24" height="24" transform="rotate(0,356,813)"/><rect x="344" y="825" width="24" height="24" transform="rotate(0,356,837)"/><rect x="344" y="873" width="24" height="24" transform="rotate(0,356,885)"/><rect x="344" y="897" width="24" height="24" transform="rotate(0,356,909)"/><rect x="344" y="945" width="24" height="24" transform="rotate(0,356,957)"/><rect x="368" y="273" width="24" height="24" transform="rotate(0,380,285)"/><rect x="368" y="345" width="24" height="24" transform="rotate(0,380,357)"/><rect x="368" y="369" width="24" height="24" transform="rotate(0,380,381)"/><rect x="368" y="441" width="24" height="24" transform="rotate(0,380,453)"/><rect x="368" y="465" width="24" height="24" transform="rotate(0,380,477)"/><rect x="368" y="513" width="24" height="24" transform="rotate(0,380,525)"/><rect x="368" y="585" width="24" height="24" transform="rotate(0,380,597)"/><rect x="368" y="657" width="24" height="24" transform="rotate(0,380,669)"/><rect x="368" y="729" width="24" height="24" transform="rotate(0,380,741)"/><rect x="368" y="753" width="24" height="24" transform="rotate(0,380,765)"/><rect x="368" y="777" width="24" height="24" transform="rotate(0,380,789)"/><rect x="368" y="801" width="24" height="24" transform="rotate(0,380,813)"/><rect x="368" y="825" width="24" height="24" transform="rotate(0,380,837)"/><rect x="368" y="873" width="24" height="24" transform="rotate(0,380,885)"/><rect x="368" y="945" width="24" height="24" transform="rotate(0,380,957)"/><rect x="392" y="273" width="24" height="24" transform="rotate(0,404,285)"/><rect x="392" y="321" width="24" height="24" transform="rotate(0,404,333)"/><rect x="392" y="369" width="24" height="24" transform="rotate(0,404,381)"/><rect x="392" y="417" width="24" height="24" transform="rotate(0,404,429)"/><rect x="392" y="441" width="24" height="24" transform="rotate(0,404,453)"/><rect x="392" y="465" width="24" height="24" transform="rotate(0,404,477)"/><rect x="392" y="489" width="24" height="24" transform="rotate(0,404,501)"/><rect x="392" y="729" width="24" height="24" transform="rotate(0,404,741)"/><rect x="392" y="753" width="24" height="24" transform="rotate(0,404,765)"/><rect x="392" y="801" width="24" height="24" transform="rotate(0,404,813)"/><rect x="392" y="825" width="24" height="24" transform="rotate(0,404,837)"/><rect x="392" y="921" width="24" height="24" transform="rotate(0,404,933)"/><rect x="416" y="297" width="24" height="24" transform="rotate(0,428,309)"/><rect x="416" y="321" width="24" height="24" transform="rotate(0,428,333)"/><rect x="416" y="345" width="24" height="24" transform="rotate(0,428,357)"/><rect x="416" y="369" width="24" height="24" transform="rotate(0,428,381)"/><rect x="416" y="465" width="24" height="24" transform="rotate(0,428,477)"/><rect x="416" y="489" width="24" height="24" transform="rotate(0,428,501)"/><rect x="416" y="777" width="24" height="24" transform="rotate(0,428,789)"/><rect x="416" y="801" width="24" height="24" transform="rotate(0,428,813)"/><rect x="416" y="825" width="24" height="24" transform="rotate(0,428,837)"/><rect x="416" y="897" width="24" height="24" transform="rotate(0,428,909)"/><rect x="416" y="921" width="24" height="24" transform="rotate(0,428,933)"/><rect x="440" y="273" width="24" height="24" transform="rotate(0,452,285)"/><rect x="440" y="297" width="24" height="24" transform="rotate(0,452,309)"/><rect x="440" y="321" width="24" height="24" transform="rotate(0,452,333)"/><rect x="440" y="345" width="24" height="24" transform="rotate(0,452,357)"/><rect x="440" y="417" width="24" height="24" transform="rotate(0,452,429)"/><rect x="440" y="489" width="24" height="24" transform="rotate(0,452,501)"/><rect x="440" y="801" width="24" height="24" transform="rotate(0,452,813)"/><rect x="440" y="825" width="24" height="24" transform="rotate(0,452,837)"/><rect x="464" y="273" width="24" height="24" transform="rotate(0,476,285)"/><rect x="464" y="297" width="24" height="24" transform="rotate(0,476,309)"/><rect x="464" y="369" width="24" height="24" transform="rotate(0,476,381)"/><rect x="464" y="441" width="24" height="24" transform="rotate(0,476,453)"/><rect x="464" y="465" width="24" height="24" transform="rotate(0,476,477)"/><rect x="464" y="729" width="24" height="24" transform="rotate(0,476,741)"/><rect x="464" y="753" width="24" height="24" transform="rotate(0,476,765)"/><rect x="464" y="777" width="24" height="24" transform="rotate(0,476,789)"/><rect x="464" y="825" width="24" height="24" transform="rotate(0,476,837)"/><rect x="464" y="873" width="24" height="24" transform="rotate(0,476,885)"/><rect x="464" y="921" width="24" height="24" transform="rotate(0,476,933)"/><rect x="488" y="297" width="24" height="24" transform="rotate(0,500,309)"/><rect x="488" y="393" width="24" height="24" transform="rotate(0,500,405)"/><rect x="488" y="417" width="24" height="24" transform="rotate(0,500,429)"/><rect x="488" y="465" width="24" height="24" transform="rotate(0,500,477)"/><rect x="488" y="489" width="24" height="24" transform="rotate(0,500,501)"/><rect x="488" y="753" width="24" height="24" transform="rotate(0,500,765)"/><rect x="488" y="777" width="24" height="24" transform="rotate(0,500,789)"/><rect x="488" y="921" width="24" height="24" transform="rotate(0,500,933)"/><rect x="488" y="945" width="24" height="24" transform="rotate(0,500,957)"/><rect x="512" y="441" width="24" height="24" transform="rotate(0,524,453)"/><rect x="512" y="489" width="24" height="24" transform="rotate(0,524,501)"/><rect x="512" y="753" width="24" height="24" transform="rotate(0,524,765)"/><rect x="512" y="825" width="24" height="24" transform="rotate(0,524,837)"/><rect x="512" y="921" width="24" height="24" transform="rotate(0,524,933)"/><rect x="512" y="945" width="24" height="24" transform="rotate(0,524,957)"/><rect x="536" y="273" width="24" height="24" transform="rotate(0,548,285)"/><rect x="536" y="297" width="24" height="24" transform="rotate(0,548,309)"/><rect x="536" y="321" width="24" height="24" transform="rotate(0,548,333)"/><rect x="536" y="345" width="24" height="24" transform="rotate(0,548,357)"/><rect x="536" y="369" width="24" height="24" transform="rotate(0,548,381)"/><rect x="536" y="417" width="24" height="24" transform="rotate(0,548,429)"/><rect x="536" y="441" width="24" height="24" transform="rotate(0,548,453)"/><rect x="536" y="489" width="24" height="24" transform="rotate(0,548,501)"/><rect x="536" y="729" width="24" height="24" transform="rotate(0,548,741)"/><rect x="536" y="777" width="24" height="24" transform="rotate(0,548,789)"/><rect x="536" y="825" width="24" height="24" transform="rotate(0,548,837)"/><rect x="536" y="921" width="24" height="24" transform="rotate(0,548,933)"/><rect x="536" y="945" width="24" height="24" transform="rotate(0,548,957)"/><rect x="560" y="321" width="24" height="24" transform="rotate(0,572,333)"/><rect x="560" y="345" width="24" height="24" transform="rotate(0,572,357)"/><rect x="560" y="465" width="24" height="24" transform="rotate(0,572,477)"/><rect x="560" y="753" width="24" height="24" transform="rotate(0,572,765)"/><rect x="560" y="825" width="24" height="24" transform="rotate(0,572,837)"/><rect x="560" y="921" width="24" height="24" transform="rotate(0,572,933)"/><rect x="560" y="945" width="24" height="24" transform="rotate(0,572,957)"/><rect x="584" y="273" width="24" height="24" transform="rotate(0,596,285)"/><rect x="584" y="321" width="24" height="24" transform="rotate(0,596,333)"/><rect x="584" y="345" width="24" height="24" transform="rotate(0,596,357)"/><rect x="584" y="369" width="24" height="24" transform="rotate(0,596,381)"/><rect x="584" y="393" width="24" height="24" transform="rotate(0,596,405)"/><rect x="584" y="417" width="24" height="24" transform="rotate(0,596,429)"/><rect x="584" y="753" width="24" height="24" transform="rotate(0,596,765)"/><rect x="584" y="777" width="24" height="24" transform="rotate(0,596,789)"/><rect x="584" y="825" width="24" height="24" transform="rotate(0,596,837)"/><rect x="584" y="873" width="24" height="24" transform="rotate(0,596,885)"/><rect x="584" y="921" width="24" height="24" transform="rotate(0,596,933)"/><rect x="584" y="945" width="24" height="24" transform="rotate(0,596,957)"/><rect x="608" y="321" width="24" height="24" transform="rotate(0,620,333)"/><rect x="608" y="369" width="24" height="24" transform="rotate(0,620,381)"/><rect x="608" y="441" width="24" height="24" transform="rotate(0,620,453)"/><rect x="608" y="465" width="24" height="24" transform="rotate(0,620,477)"/><rect x="608" y="489" width="24" height="24" transform="rotate(0,620,501)"/><rect x="608" y="513" width="24" height="24" transform="rotate(0,620,525)"/><rect x="608" y="561" width="24" height="24" transform="rotate(0,620,573)"/><rect x="608" y="681" width="24" height="24" transform="rotate(0,620,693)"/><rect x="608" y="705" width="24" height="24" transform="rotate(0,620,717)"/><rect x="608" y="729" width="24" height="24" transform="rotate(0,620,741)"/><rect x="608" y="849" width="24" height="24" transform="rotate(0,620,861)"/><rect x="608" y="873" width="24" height="24" transform="rotate(0,620,885)"/><rect x="632" y="273" width="24" height="24" transform="rotate(0,644,285)"/><rect x="632" y="321" width="24" height="24" transform="rotate(0,644,333)"/><rect x="632" y="345" width="24" height="24" transform="rotate(0,644,357)"/><rect x="632" y="393" width="24" height="24" transform="rotate(0,644,405)"/><rect x="632" y="417" width="24" height="24" transform="rotate(0,644,429)"/><rect x="632" y="489" width="24" height="24" transform="rotate(0,644,501)"/><rect x="632" y="561" width="24" height="24" transform="rotate(0,644,573)"/><rect x="632" y="609" width="24" height="24" transform="rotate(0,644,621)"/><rect x="632" y="633" width="24" height="24" transform="rotate(0,644,645)"/><rect x="632" y="729" width="24" height="24" transform="rotate(0,644,741)"/><rect x="632" y="753" width="24" height="24" transform="rotate(0,644,765)"/><rect x="632" y="777" width="24" height="24" transform="rotate(0,644,789)"/><rect x="632" y="801" width="24" height="24" transform="rotate(0,644,813)"/><rect x="632" y="825" width="24" height="24" transform="rotate(0,644,837)"/><rect x="632" y="849" width="24" height="24" transform="rotate(0,644,861)"/><rect x="632" y="897" width="24" height="24" transform="rotate(0,644,909)"/><rect x="632" y="921" width="24" height="24" transform="rotate(0,644,933)"/><rect x="656" y="465" width="24" height="24" transform="rotate(0,668,477)"/><rect x="656" y="489" width="24" height="24" transform="rotate(0,668,501)"/><rect x="656" y="537" width="24" height="24" transform="rotate(0,668,549)"/><rect x="656" y="609" width="24" height="24" transform="rotate(0,668,621)"/><rect x="656" y="657" width="24" height="24" transform="rotate(0,668,669)"/><rect x="656" y="705" width="24" height="24" transform="rotate(0,668,717)"/><rect x="656" y="753" width="24" height="24" transform="rotate(0,668,765)"/><rect x="656" y="849" width="24" height="24" transform="rotate(0,668,861)"/><rect x="656" y="921" width="24" height="24" transform="rotate(0,668,933)"/><rect x="656" y="945" width="24" height="24" transform="rotate(0,668,957)"/><rect x="680" y="465" width="24" height="24" transform="rotate(0,692,477)"/><rect x="680" y="537" width="24" height="24" transform="rotate(0,692,549)"/><rect x="680" y="561" width="24" height="24" transform="rotate(0,692,573)"/><rect x="680" y="585" width="24" height="24" transform="rotate(0,692,597)"/><rect x="680" y="609" width="24" height="24" transform="rotate(0,692,621)"/><rect x="680" y="705" width="24" height="24" transform="rotate(0,692,717)"/><rect x="680" y="753" width="24" height="24" transform="rotate(0,692,765)"/><rect x="680" y="801" width="24" height="24" transform="rotate(0,692,813)"/><rect x="680" y="849" width="24" height="24" transform="rotate(0,692,861)"/><rect x="680" y="873" width="24" height="24" transform="rotate(0,692,885)"/><rect x="680" y="897" width="24" height="24" transform="rotate(0,692,909)"/><rect x="704" y="465" width="24" height="24" transform="rotate(0,716,477)"/><rect x="704" y="489" width="24" height="24" transform="rotate(0,716,501)"/><rect x="704" y="537" width="24" height="24" transform="rotate(0,716,549)"/><rect x="704" y="657" width="24" height="24" transform="rotate(0,716,669)"/><rect x="704" y="753" width="24" height="24" transform="rotate(0,716,765)"/><rect x="704" y="849" width="24" height="24" transform="rotate(0,716,861)"/><rect x="704" y="897" width="24" height="24" transform="rotate(0,716,909)"/><rect x="728" y="513" width="24" height="24" transform="rotate(0,740,525)"/><rect x="728" y="561" width="24" height="24" transform="rotate(0,740,573)"/><rect x="728" y="609" width="24" height="24" transform="rotate(0,740,621)"/><rect x="728" y="657" width="24" height="24" transform="rotate(0,740,669)"/><rect x="728" y="753" width="24" height="24" transform="rotate(0,740,765)"/><rect x="728" y="777" width="24" height="24" transform="rotate(0,740,789)"/><rect x="728" y="801" width="24" height="24" transform="rotate(0,740,813)"/><rect x="728" y="825" width="24" height="24" transform="rotate(0,740,837)"/><rect x="728" y="849" width="24" height="24" transform="rotate(0,740,861)"/><rect x="728" y="873" width="24" height="24" transform="rotate(0,740,885)"/><rect x="752" y="465" width="24" height="24" transform="rotate(0,764,477)"/><rect x="752" y="513" width="24" height="24" transform="rotate(0,764,525)"/><rect x="752" y="537" width="24" height="24" transform="rotate(0,764,549)"/><rect x="752" y="585" width="24" height="24" transform="rotate(0,764,597)"/><rect x="752" y="633" width="24" height="24" transform="rotate(0,764,645)"/><rect x="752" y="657" width="24" height="24" transform="rotate(0,764,669)"/><rect x="752" y="681" width="24" height="24" transform="rotate(0,764,693)"/><rect x="752" y="705" width="24" height="24" transform="rotate(0,764,717)"/><rect x="752" y="729" width="24" height="24" transform="rotate(0,764,741)"/><rect x="752" y="753" width="24" height="24" transform="rotate(0,764,765)"/><rect x="752" y="777" width="24" height="24" transform="rotate(0,764,789)"/><rect x="752" y="801" width="24" height="24" transform="rotate(0,764,813)"/><rect x="752" y="849" width="24" height="24" transform="rotate(0,764,861)"/><rect x="752" y="873" width="24" height="24" transform="rotate(0,764,885)"/><rect x="752" y="897" width="24" height="24" transform="rotate(0,764,909)"/><rect x="752" y="945" width="24" height="24" transform="rotate(0,764,957)"/><rect x="776" y="489" width="24" height="24" transform="rotate(0,788,501)"/><rect x="776" y="513" width="24" height="24" transform="rotate(0,788,525)"/><rect x="776" y="537" width="24" height="24" transform="rotate(0,788,549)"/><rect x="776" y="657" width="24" height="24" transform="rotate(0,788,669)"/><rect x="776" y="705" width="24" height="24" transform="rotate(0,788,717)"/><rect x="776" y="729" width="24" height="24" transform="rotate(0,788,741)"/><rect x="776" y="753" width="24" height="24" transform="rotate(0,788,765)"/><rect x="776" y="849" width="24" height="24" transform="rotate(0,788,861)"/><rect x="776" y="873" width="24" height="24" transform="rotate(0,788,885)"/><rect x="776" y="945" width="24" height="24" transform="rotate(0,788,957)"/><rect x="800" y="465" width="24" height="24" transform="rotate(0,812,477)"/><rect x="800" y="489" width="24" height="24" transform="rotate(0,812,501)"/><rect x="800" y="513" width="24" height="24" transform="rotate(0,812,525)"/><rect x="800" y="537" width="24" height="24" transform="rotate(0,812,549)"/><rect x="800" y="681" width="24" height="24" transform="rotate(0,812,693)"/><rect x="800" y="777" width="24" height="24" transform="rotate(0,812,789)"/><rect x="800" y="801" width="24" height="24" transform="rotate(0,812,813)"/><rect x="800" y="825" width="24" height="24" transform="rotate(0,812,837)"/><rect x="800" y="873" width="24" height="24" transform="rotate(0,812,885)"/><rect x="800" y="921" width="24" height="24" transform="rotate(0,812,933)"/><rect x="824" y="489" width="24" height="24" transform="rotate(0,836,501)"/><rect x="824" y="513" width="24" height="24" transform="rotate(0,836,525)"/><rect x="824" y="537" width="24" height="24" transform="rotate(0,836,549)"/><rect x="824" y="585" width="24" height="24" transform="rotate(0,836,597)"/><rect x="824" y="633" width="24" height="24" transform="rotate(0,836,645)"/><rect x="824" y="681" width="24" height="24" transform="rotate(0,836,693)"/><rect x="824" y="753" width="24" height="24" transform="rotate(0,836,765)"/><rect x="824" y="801" width="24" height="24" transform="rotate(0,836,813)"/><rect x="824" y="849" width="24" height="24" transform="rotate(0,836,861)"/><rect x="824" y="873" width="24" height="24" transform="rotate(0,836,885)"/><rect x="824" y="921" width="24" height="24" transform="rotate(0,836,933)"/></clipPath><clipPath id="clip-path-corners-square-color-0-0"><path d="m 152 273 m 147 13.3 l -147 -13.3 l 14 147 c 0 7.7 6.3 14 14 14 h 133 v -133.7 c 0 -7.7 -6.3 -14 -14 -14 z m -7.35 126.35 h -94.15 c -5.6 0 -10.15 -4.55 -10.15 -10.15 l -7.7 -101.5 l 101.85 7.35 c 5.6 0 10.15 4.55 10.15 10.08 v 94.22 z"/></clipPath><clipPath id="clip-path-corners-dot-color-0-0"><path d="m 200 321 m 72 72 l -66.72 0 l -5.28 -72 l 72 5.28 z"/></clipPath><clipPath id="clip-path-corners-square-color-1-0"><path d="m 680 273 m 147 13.3 l -147 -13.3 l 14 147 c 0 7.7 6.3 14 14 14 h 133 v -133.7 c 0 -7.7 -6.3 -14 -14 -14 z m -7.35 126.35 h -94.15 c -5.6 0 -10.15 -4.55 -10.15 -10.15 l -7.7 -101.5 l 101.85 7.35 c 5.6 0 10.15 4.55 10.15 10.08 v 94.22 z"/></clipPath><clipPath id="clip-path-corners-dot-color-1-0"><path d="m 728 321 m 72 72 l -66.72 0 l -5.28 -72 l 72 5.28 z"/></clipPath><clipPath id="clip-path-corners-square-color-0-1"><path d="m 152 801 m 147 13.3 l -147 -13.3 l 14 147 c 0 7.7 6.3 14 14 14 h 133 v -133.7 c 0 -7.7 -6.3 -14 -14 -14 z m -7.35 126.35 h -94.15 c -5.6 0 -10.15 -4.55 -10.15 -10.15 l -7.7 -101.5 l 101.85 7.35 c 5.6 0 10.15 4.55 10.15 10.08 v 94.22 z"/></clipPath><clipPath id="clip-path-corners-dot-color-0-1"><path d="m 200 849 m 72 72 l -66.72 0 l -5.28 -72 l 72 5.28 z"/></clipPath></defs><defs><linearGradient id="frame-gradient" x1="1.7155612596462921%" y1="0%" x2="98.2844387403537%" y2="100%">
			<stop offset="0%" stop-color="#2f557f"/>
			<stop offset="100%" stop-color="#000000"/></linearGradient></defs><path fill="url(#frame-gradient)" d="M960,165.66L960,165.66L960,165.66v920H40v-920l0,0H960 M960,125.66H40c-22.09,0-40,17.91-40,40v920 c0,22.09,17.91,40,40,40h920c22.09,0,40-17.91,40-40v-920C1000,143.57,982.09,125.66,960,125.66L960,125.66z"/>
			<path fill="url(#frame-gradient)" d="M960,1299.66H40c-22.09,0-40-17.91-40-40v-173h1000v173C1000,1281.76,982.09,1299.66,960,1299.66z"/>
			<path fill="#8caed4" d="M699.77,196.66H302.23c-7.31,0-13.23-5.92-13.23-13.23v-48.87c0-37.86,30.69-68.55,68.55-68.55h286.9 c37.86,0,68.55,30.69,68.55,68.55v48.87C713,190.74,707.08,196.66,699.77,196.66z"/>
			<circle fill="#8caed4" cx="501" cy="66.34" r="66"/>
			<circle fill="null" cx="501" cy="66.34" r="26.23"/>
			<text fill="#ffffff" font-size="100" x="50%" y="1193" dominant-baseline="middle" text-anchor="middle" font-family="sans-serif">Daily devotion</text><rect x="106" y="227" height="788" width="788" clip-path="url('#clip-path-background-color')" fill="#ffffff"/><rect x="152" y="273" height="696" width="696" clip-path="url('#clip-path-dot-color')" fill="#000000"/><rect x="152" y="273" height="168" width="168" clip-path="url('#clip-path-corners-square-color-0-0')" fill="#000000"/><rect x="200" y="321" height="72" width="72" clip-path="url('#clip-path-corners-dot-color-0-0')" fill="#000000"/><rect x="680" y="273" height="168" width="168" clip-path="url('#clip-path-corners-square-color-1-0')" fill="#000000"/><rect x="728" y="321" height="72" width="72" clip-path="url('#clip-path-corners-dot-color-1-0')" fill="#000000"/><rect x="152" y="801" height="168" width="168" clip-path="url('#clip-path-corners-square-color-0-1')" fill="#000000"/><rect x="200" y="849" height="72" width="72" clip-path="url('#clip-path-corners-dot-color-0-1')" fill="#000000"/><image href="https://img.qrfy.com/img/large/26023678-ad01-40b2-9560-aeeb00e75429.webp" x="392" y="523.5" width="216px" height="195px"/></svg>